<?xml version="1.0" standalone="no"?><!DOCTYPE svg PUBLIC "-//W3C//DTD SVG 1.1//EN" "http://www.w3.org/Graphics/SVG/1.1/DTD/svg11.dtd"><svg t="1743566373024" class="icon" viewBox="0 0 1170 1024" version="1.1" xmlns="http://www.w3.org/2000/svg" p-id="23795" xmlns:xlink="http://www.w3.org/1999/xlink" width="228.515625" height="200"><path d="M1133.447837 838.494041c-15.030857 67.474286-96.156735 138.60049-173.630694 152.095347-249.782857 40.505469-499.570939 40.505469-749.348572 0-77.473959-13.494857-158.599837-84.621061-173.641142-152.095347-45.134367-217.657469-45.134367-435.320163 0-652.982857C51.858286 118.036898 132.989388 46.900245 210.468571 33.410612c249.772408-40.500245 499.56049-40.500245 749.348572 0 77.46351 13.489633 158.594612 84.621061 173.630694 152.100572 45.144816 217.657469 45.144816 435.325388 0 652.982857z" fill="#FF566B" p-id="23796"></path><path d="M906.44898 248.163265m-70.530613 0a70.530612 70.530612 0 1 0 141.061225 0 70.530612 70.530612 0 1 0-141.061225 0Z" fill="#F8F8F8" p-id="23797"></path><path d="M453.637224 314.853878c32.888163-82.964898 347.987592 116.166531 347.987592 193.238204 0 79.66302-236.512653 229.642449-329.905632 229.642449-55.881143-16.070531-74.861714-370.358857-18.08196-422.880653z" fill="#FFFFFF" p-id="23798"></path></svg>